<?xml version="1.0" encoding="UTF-8"?>
<svg width="700pt" height="700pt" version="1.1" viewBox="0 0 700 700" xmlns="http://www.w3.org/2000/svg">
 <g fill-rule="evenodd">
  <path d="m280.54 303.33c3.3164 70.977 21.578 129.58 46.125 152.71v-152.71zm0-46.664h46.125v-152.71c-24.547 23.137-42.809 81.738-46.125 152.71zm138.91 0c-3.3164-70.977-21.578-129.58-46.125-152.71v152.71zm0 46.664h-46.125v152.71c24.547-23.137 42.809-81.738 46.125-152.71zm-254.68 0c7.9922 64.086 48.465 118.08 104.43 144.99-19.477-37.406-32.477-88.203-35.293-144.99zm0-46.664h69.133c2.8164-56.789 15.816-107.59 35.293-144.99-55.961 26.91-96.434 80.906-104.43 144.99zm370.45 0c-7.9922-64.086-48.465-118.08-104.43-144.99 19.477 37.406 32.477 88.203 35.293 144.99zm0 46.664h-69.133c-2.8164 56.789-15.816 107.59-35.293 144.99 55.961-26.91 96.434-80.906 104.43-144.99zm-185.22 210c-128.87 0-233.33-104.46-233.33-233.33s104.46-233.33 233.33-233.33 233.33 104.46 233.33 233.33-104.46 233.33-233.33 233.33z"/>
  <path d="m500 101.27c50.945 42.801 83.328 106.99 83.328 178.73 0 66.832-28.098 127.1-73.121 169.64-31.367-70.633-289.05-70.633-320.42 0-45.023-42.539-73.121-102.81-73.121-169.64 0-71.746 32.383-135.93 83.328-178.73 52.832 51.645 247.18 51.645 300.01 0zm-293.3 59.074c-27.676 33.074-43.375 75.055-43.375 119.66 0 37.578 11.129 73.32 31.27 103.49 80.223-44.652 230.57-44.652 310.8 0 20.141-30.168 31.27-65.91 31.27-103.49 0-44.605-15.699-86.586-43.375-119.66-77.25 35.102-209.34 35.102-286.59 0z"/>
 </g>
</svg>
